<svg xmlns="http://www.w3.org/2000/svg" viewBox="0 0 32 32">
  <path fill="#fff" d="M16.02 3.2A12.68 12.68 0 0 0 5.21 22.5L3.5 28.8l6.45-1.69a12.67 12.67 0 1 0 6.07-23.91Zm0 22.91c-2.05 0-3.95-.6-5.55-1.63l-.4-.25-3.82 1 1.02-3.72-.26-.38a10.25 10.25 0 1 1 9.01 4.98Zm5.62-7.68c-.31-.15-1.82-.9-2.1-1-.28-.1-.49-.15-.69.15-.2.31-.79 1-.97 1.2-.18.21-.36.23-.67.08-.31-.15-1.3-.48-2.47-1.52-.91-.81-1.53-1.82-1.71-2.13-.18-.31-.02-.48.13-.63.14-.13.31-.36.46-.54.15-.18.2-.31.31-.51.1-.21.05-.38-.03-.54-.08-.15-.69-1.66-.94-2.27-.25-.6-.5-.51-.69-.52h-.59c-.2 0-.54.08-.82.38-.28.31-1.07 1.05-1.07 2.56s1.1 2.96 1.25 3.16c.15.2 2.16 3.3 5.24 4.63.73.31 1.3.5 1.75.64.73.23 1.4.2 1.93.12.59-.09 1.82-.74 2.08-1.46.26-.72.26-1.33.18-1.46-.08-.13-.28-.21-.59-.36Z"/>
</svg>
